# xmcd
#
# Track frame offsets: 
#        150
#        16590
#        32972
#        53973
#        69362
#        85523
#        98617
#        114517
#        128972
#        145069
#
# Disc length: 2234 seconds
#
# Revision: 0
# Processed by: cddbd v1.5.2PL0 Copyright (c) Steve Scherf et al.
# Submitted via: ExactAudioCopyFreeDBPlugin 1.0
#
DISCID=7708b80a
DTITLE=Violator - Chemical Assault
DYEAR=2006
DGENRE=Thrash Metal
TTITLE0=Atomic Nightmare
TTITLE1=UxFxTx
TTITLE2=Destined To Die
TTITLE3=Addicted To Mosh
TTITLE4=Brainwash Possession
TTITLE5=Ordered To Thrash
TTITLE6=Toxic Death
TTITLE7=Lethal Injection
TTITLE8=The Plague Returns
TTITLE9=After Nuclear Devastation
EXTD=
EXTT0=
EXTT1=
EXTT2=
EXTT3=
EXTT4=
EXTT5=
EXTT6=
EXTT7=
EXTT8=
EXTT9=
PLAYORDER=
